<?xml version="1.0" encoding="UTF-8"?>
<mxfile host="app.diagrams.net">
  <diagram name="Symbiosis AWS Architecture" id="symbiosis-aws-arch">
    <mxGraphModel dx="1024" dy="768" grid="1" gridSize="10" guides="1" tooltips="1" connect="1" arrows="1" fold="1" page="1" pageScale="1" pageWidth="850" pageHeight="1100">
      <root>
        <mxCell id="0" />
        <mxCell id="1" parent="0" />

        <!-- VPC -->
        <mxCell id="2" value="VPC (10.0.0.0/16)" style="shape=swimlane;startSize=20;" vertex="1" parent="1">
          <mxGeometry x="20" y="20" width="800" height="600" as="geometry" />
        </mxCell>

        <!-- Public Subnets -->
        <mxCell id="3" value="Public Subnet 1 (10.0.1.0/24)" style="shape=swimlane;startSize=20;fillColor=#e1f5fe;" vertex="1" parent="2">
          <mxGeometry x="20" y="40" width="360" height="260" as="geometry" />
        </mxCell>
        <mxCell id="4" value="Public Subnet 2 (10.0.2.0/24)" style="shape=swimlane;startSize=20;fillColor=#e1f5fe;" vertex="1" parent="2">
          <mxGeometry x="400" y="40" width="360" height="260" as="geometry" />
        </mxCell>

        <!-- Private Subnets -->
        <mxCell id="5" value="Private Subnet 1 (10.0.3.0/24)" style="shape=swimlane;startSize=20;fillColor=#e8f5e9;" vertex="1" parent="2">
          <mxGeometry x="20" y="320" width="360" height="240" as="geometry" />
        </mxCell>
        <mxCell id="6" value="Private Subnet 2 (10.0.4.0/24)" style="shape=swimlane;startSize=20;fillColor=#e8f5e9;" vertex="1" parent="2">
          <mxGeometry x="400" y="320" width="360" height="240" as="geometry" />
        </mxCell>

        <!-- Components -->
        <mxCell id="7" value="ALB" style="shape=ellipse;whiteSpace=wrap;html=1;fillColor=#ffeb3b;" vertex="1" parent="3">
          <mxGeometry x="130" y="60" width="100" height="40" as="geometry" />
        </mxCell>
        <mxCell id="8" value="EC2 (Auto Scaling)" style="shape=rectangle;whiteSpace=wrap;html=1;fillColor=#b2ebf2;" vertex="1" parent="3">
          <mxGeometry x="80" y="120" width="200" height="80" as="geometry" />
        </mxCell>
        <mxCell id="9" value="RDS (MySQL)" style="shape=rectangle;whiteSpace=wrap;html=1;fillColor=#c8e6c9;" vertex="1" parent="5">
          <mxGeometry x="100" y="60" width="160" height="60" as="geometry" />
        </mxCell>

      </root>
    </mxGraphModel>
  </diagram>
</mxfile>